# xmcd
#
# Track frame offsets: 
#        150
#        10443
#        22669
#        38028
#        47977
#        59392
#        69185
#        89204
#        100340
#        116886
#        136760
#        146517
#        157843
#        171912
#
# Disc length: 2435 seconds
#
# Revision: 0
# Processed by: cddbd v1.5.2PL0 Copyright (c) Steve Scherf et al.
# Submitted via: ExactAudioCopy v0.95b4
#
DISCID=ba09810e
DTITLE=Howlin' WIlf and The Vee-Jays - Cry Wilf!
DYEAR=1986
DGENRE=Blues
TTITLE0=Got A thing For You
TTITLE1=Same Old Nuthin'
TTITLE2=Ya Ya
TTITLE3=I Got My Eyes On You
TTITLE4=Hello Stranger
TTITLE5=Get It Over Baby
TTITLE6=Wilf's Wobble
TTITLE7=Boom Boom (Out Go The LIghts)
TTITLE8=SummerTime
TTITLE9=Mellow Down Easy
TTITLE10=Don't Let It Be In Vain
TTITLE11=Farther Up The Road
TTITLE12=Can't Stand It No More
TTITLE13=Shake It
EXTD=
EXTT0=
EXTT1=
EXTT2=
EXTT3=
EXTT4=
EXTT5=
EXTT6=
EXTT7=
EXTT8=
EXTT9=
EXTT10=
EXTT11=
EXTT12=
EXTT13=
PLAYORDER=
